# xmcd
#
# Track frame offsets:
#	150
#	23494
#	45954
#	78450
#	140342
#
# Disc length: 2598 seconds
#
# Revision: 0
# Processed by: cddbd v1.5.2PL0 Copyright (c) Steve Scherf et al.
# Submitted via: EasyCDDAExtractor 10.0.6.1
#
DISCID=2e0a2405
DTITLE=Nightwish - Dark Passion Play (Triplaplatinapainos cd2)
DYEAR=2007
DGENRE=SaattoMetalli
TTITLE0=Erämaan Viimeinen (featuring Jonsu)
TTITLE1=Escapist (New Track)
TTITLE2=Meadows Of Heaven (Orchestral Version)
TTITLE3=The Poet And The Pendlum (Demo)
TTITLE4=Bye Bye Beautiful (DJ Orkidea Remix)
EXTD=
EXTT0=
EXTT1=
EXTT2=
EXTT3=
EXTT4=
PLAYORDER=
